<mxfile host="app.diagrams.net" modified="2024-06-07T23:10:00.065Z" agent="Mozilla/5.0 (Macintosh; Intel Mac OS X 10.15; rv:126.0) Gecko/20100101 Firefox/126.0" etag="Jjj_8e_CPCx6z7O_237F" version="24.5.2" type="github">
  <diagram name="Page-1" id="iiXL7b2Tq6cY2mV66dEW">
    <mxGraphModel dx="1193" dy="801" grid="1" gridSize="10" guides="1" tooltips="1" connect="1" arrows="1" fold="1" page="1" pageScale="1" pageWidth="850" pageHeight="1100" math="0" shadow="0">
      <root>
        <mxCell id="0" />
        <mxCell id="1" parent="0" />
        <mxCell id="osTqrTg-uP3xbEGMU3VC-3" value="Production" style="rounded=0;whiteSpace=wrap;html=1;" vertex="1" parent="1">
          <mxGeometry x="20" y="520" width="250" height="40" as="geometry" />
        </mxCell>
        <mxCell id="osTqrTg-uP3xbEGMU3VC-4" value="Post production" style="rounded=0;whiteSpace=wrap;html=1;" vertex="1" parent="1">
          <mxGeometry x="20" y="1210" width="250" height="40" as="geometry" />
        </mxCell>
        <mxCell id="osTqrTg-uP3xbEGMU3VC-5" value="&lt;div&gt;Previz&lt;/div&gt;" style="rounded=0;whiteSpace=wrap;html=1;" vertex="1" parent="1">
          <mxGeometry x="20" y="20" width="250" height="40" as="geometry" />
        </mxCell>
        <mxCell id="osTqrTg-uP3xbEGMU3VC-23" value="" style="swimlane;startSize=0;" vertex="1" parent="1">
          <mxGeometry x="20" y="60" width="250" height="420" as="geometry">
            <mxRectangle x="20" y="170" width="50" height="40" as="alternateBounds" />
          </mxGeometry>
        </mxCell>
        <mxCell id="osTqrTg-uP3xbEGMU3VC-6" value="References" style="rounded=1;whiteSpace=wrap;html=1;fillColor=#2582DE;strokeColor=none;fontColor=#FFFFFF;fontStyle=0" vertex="1" parent="osTqrTg-uP3xbEGMU3VC-23">
          <mxGeometry x="25" y="20" width="200" height="40" as="geometry" />
        </mxCell>
        <mxCell id="osTqrTg-uP3xbEGMU3VC-8" value="Storyboards" style="rounded=1;whiteSpace=wrap;html=1;fillColor=#2582DE;strokeColor=none;fontColor=#FFFFFF;" vertex="1" parent="osTqrTg-uP3xbEGMU3VC-23">
          <mxGeometry x="25" y="70" width="200" height="40" as="geometry" />
        </mxCell>
        <mxCell id="osTqrTg-uP3xbEGMU3VC-11" value="Concept Art" style="rounded=1;whiteSpace=wrap;html=1;fillColor=#2582DE;strokeColor=none;fontColor=#FFFFFF;fontStyle=0" vertex="1" parent="osTqrTg-uP3xbEGMU3VC-23">
          <mxGeometry x="25" y="120" width="200" height="40" as="geometry" />
        </mxCell>
        <mxCell id="osTqrTg-uP3xbEGMU3VC-15" value="Animatic" style="rounded=1;whiteSpace=wrap;html=1;fillColor=#2582DE;strokeColor=none;fontColor=#FFFFFF;" vertex="1" parent="osTqrTg-uP3xbEGMU3VC-23">
          <mxGeometry x="25" y="170" width="200" height="40" as="geometry" />
        </mxCell>
        <mxCell id="osTqrTg-uP3xbEGMU3VC-27" value="Look Development" style="rounded=1;whiteSpace=wrap;html=1;fillColor=#2582DE;strokeColor=none;fontColor=#FFFFFF;" vertex="1" parent="osTqrTg-uP3xbEGMU3VC-23">
          <mxGeometry x="25" y="220" width="200" height="40" as="geometry" />
        </mxCell>
        <mxCell id="osTqrTg-uP3xbEGMU3VC-30" value="Script writing" style="rounded=1;whiteSpace=wrap;html=1;fillColor=#2582DE;strokeColor=none;fontColor=#FFFFFF;" vertex="1" parent="osTqrTg-uP3xbEGMU3VC-23">
          <mxGeometry x="25" y="270" width="200" height="40" as="geometry" />
        </mxCell>
        <mxCell id="osTqrTg-uP3xbEGMU3VC-54" value="&lt;div&gt;Reference animation vids&lt;/div&gt;" style="rounded=1;whiteSpace=wrap;html=1;fillColor=#2582DE;strokeColor=none;fontColor=#FFFFFF;" vertex="1" parent="osTqrTg-uP3xbEGMU3VC-23">
          <mxGeometry x="25" y="320" width="200" height="40" as="geometry" />
        </mxCell>
        <mxCell id="osTqrTg-uP3xbEGMU3VC-24" value="" style="swimlane;startSize=0;" vertex="1" parent="1">
          <mxGeometry x="20" y="560" width="250" height="630" as="geometry" />
        </mxCell>
        <mxCell id="osTqrTg-uP3xbEGMU3VC-21" value="Pipeline" style="rounded=1;whiteSpace=wrap;html=1;fillColor=#009900;strokeColor=none;fontColor=#FFFFFF;" vertex="1" parent="osTqrTg-uP3xbEGMU3VC-24">
          <mxGeometry x="25" y="20" width="200" height="40" as="geometry" />
        </mxCell>
        <mxCell id="osTqrTg-uP3xbEGMU3VC-7" value="Schematic drawings" style="rounded=1;whiteSpace=wrap;html=1;fillColor=#009900;strokeColor=none;fontColor=#FFFFFF;" vertex="1" parent="osTqrTg-uP3xbEGMU3VC-24">
          <mxGeometry x="25" y="70" width="200" height="40" as="geometry" />
        </mxCell>
        <mxCell id="osTqrTg-uP3xbEGMU3VC-12" value="Modeling" style="rounded=1;whiteSpace=wrap;html=1;fillColor=#009900;strokeColor=none;fontColor=#FFFFFF;" vertex="1" parent="osTqrTg-uP3xbEGMU3VC-24">
          <mxGeometry x="25" y="120" width="200" height="40" as="geometry" />
        </mxCell>
        <mxCell id="osTqrTg-uP3xbEGMU3VC-13" value="Texturing, surfacing" style="rounded=1;whiteSpace=wrap;html=1;fillColor=#009900;strokeColor=none;fontColor=#FFFFFF;" vertex="1" parent="osTqrTg-uP3xbEGMU3VC-24">
          <mxGeometry x="25" y="170" width="200" height="40" as="geometry" />
        </mxCell>
        <mxCell id="osTqrTg-uP3xbEGMU3VC-17" value="Rigging" style="rounded=1;whiteSpace=wrap;html=1;fillColor=#009900;strokeColor=none;fontColor=#FFFFFF;" vertex="1" parent="osTqrTg-uP3xbEGMU3VC-24">
          <mxGeometry x="25" y="220" width="200" height="40" as="geometry" />
        </mxCell>
        <mxCell id="osTqrTg-uP3xbEGMU3VC-16" value="Animation" style="rounded=1;whiteSpace=wrap;html=1;fillColor=#009900;strokeColor=none;fontColor=#FFFFFF;" vertex="1" parent="osTqrTg-uP3xbEGMU3VC-24">
          <mxGeometry x="25" y="270" width="200" height="40" as="geometry" />
        </mxCell>
        <mxCell id="osTqrTg-uP3xbEGMU3VC-18" value="Simulation and Effects" style="rounded=1;whiteSpace=wrap;html=1;fillColor=#009900;strokeColor=none;fontColor=#FFFFFF;" vertex="1" parent="osTqrTg-uP3xbEGMU3VC-24">
          <mxGeometry x="25" y="420" width="200" height="40" as="geometry" />
        </mxCell>
        <mxCell id="osTqrTg-uP3xbEGMU3VC-14" value="Rendering" style="rounded=1;whiteSpace=wrap;html=1;fillColor=#009900;strokeColor=none;fontColor=#FFFFFF;" vertex="1" parent="osTqrTg-uP3xbEGMU3VC-24">
          <mxGeometry x="25" y="470" width="200" height="40" as="geometry" />
        </mxCell>
        <mxCell id="osTqrTg-uP3xbEGMU3VC-28" value="Performance Capture" style="rounded=1;whiteSpace=wrap;html=1;fillColor=#009900;strokeColor=none;fontColor=#FFFFFF;" vertex="1" parent="osTqrTg-uP3xbEGMU3VC-24">
          <mxGeometry x="25" y="370" width="200" height="40" as="geometry" />
        </mxCell>
        <mxCell id="osTqrTg-uP3xbEGMU3VC-29" value="Voice acting" style="rounded=1;whiteSpace=wrap;html=1;fillColor=#009900;strokeColor=none;fontColor=#FFFFFF;" vertex="1" parent="osTqrTg-uP3xbEGMU3VC-24">
          <mxGeometry x="25" y="320" width="200" height="40" as="geometry" />
        </mxCell>
        <mxCell id="osTqrTg-uP3xbEGMU3VC-31" value="Coding and scripting" style="rounded=1;whiteSpace=wrap;html=1;fillColor=#009900;strokeColor=none;fontColor=#FFFFFF;" vertex="1" parent="osTqrTg-uP3xbEGMU3VC-24">
          <mxGeometry x="25" y="520" width="200" height="40" as="geometry" />
        </mxCell>
        <mxCell id="osTqrTg-uP3xbEGMU3VC-32" value="Scene layout" style="rounded=1;whiteSpace=wrap;html=1;fillColor=#009900;strokeColor=none;fontColor=#FFFFFF;" vertex="1" parent="osTqrTg-uP3xbEGMU3VC-24">
          <mxGeometry x="25" y="570" width="200" height="40" as="geometry" />
        </mxCell>
        <mxCell id="osTqrTg-uP3xbEGMU3VC-25" value="" style="swimlane;startSize=0;" vertex="1" parent="1">
          <mxGeometry x="20" y="1250" width="250" height="170" as="geometry" />
        </mxCell>
        <mxCell id="osTqrTg-uP3xbEGMU3VC-19" value="Compositing and color grading" style="rounded=1;whiteSpace=wrap;html=1;fillColor=#009900;strokeColor=none;fontColor=#FFFFFF;" vertex="1" parent="osTqrTg-uP3xbEGMU3VC-25">
          <mxGeometry x="25" y="20" width="200" height="40" as="geometry" />
        </mxCell>
        <mxCell id="osTqrTg-uP3xbEGMU3VC-20" value="Export and storage" style="rounded=1;whiteSpace=wrap;html=1;fillColor=#009900;strokeColor=none;fontColor=#FFFFFF;" vertex="1" parent="osTqrTg-uP3xbEGMU3VC-25">
          <mxGeometry x="25" y="70" width="200" height="40" as="geometry" />
        </mxCell>
        <mxCell id="osTqrTg-uP3xbEGMU3VC-33" style="edgeStyle=orthogonalEdgeStyle;rounded=0;orthogonalLoop=1;jettySize=auto;html=1;exitX=1;exitY=0.5;exitDx=0;exitDy=0;" edge="1" parent="1" source="osTqrTg-uP3xbEGMU3VC-7" target="osTqrTg-uP3xbEGMU3VC-34">
          <mxGeometry relative="1" as="geometry">
            <mxPoint x="330" y="650" as="targetPoint" />
            <Array as="points">
              <mxPoint x="340" y="650" />
              <mxPoint x="340" y="650" />
            </Array>
          </mxGeometry>
        </mxCell>
        <mxCell id="osTqrTg-uP3xbEGMU3VC-40" style="edgeStyle=orthogonalEdgeStyle;rounded=0;orthogonalLoop=1;jettySize=auto;html=1;exitX=1;exitY=0.5;exitDx=0;exitDy=0;" edge="1" parent="1" source="osTqrTg-uP3xbEGMU3VC-13" target="osTqrTg-uP3xbEGMU3VC-39">
          <mxGeometry relative="1" as="geometry" />
        </mxCell>
        <mxCell id="osTqrTg-uP3xbEGMU3VC-44" style="edgeStyle=orthogonalEdgeStyle;rounded=0;orthogonalLoop=1;jettySize=auto;html=1;exitX=1;exitY=0.75;exitDx=0;exitDy=0;" edge="1" parent="1" source="osTqrTg-uP3xbEGMU3VC-13" target="osTqrTg-uP3xbEGMU3VC-41">
          <mxGeometry relative="1" as="geometry">
            <Array as="points">
              <mxPoint x="320" y="760" />
              <mxPoint x="320" y="780" />
            </Array>
          </mxGeometry>
        </mxCell>
        <mxCell id="osTqrTg-uP3xbEGMU3VC-51" style="edgeStyle=orthogonalEdgeStyle;rounded=0;orthogonalLoop=1;jettySize=auto;html=1;exitX=1;exitY=0.25;exitDx=0;exitDy=0;entryX=0;entryY=0.5;entryDx=0;entryDy=0;" edge="1" parent="1" source="osTqrTg-uP3xbEGMU3VC-16" target="osTqrTg-uP3xbEGMU3VC-49">
          <mxGeometry relative="1" as="geometry">
            <Array as="points">
              <mxPoint x="290" y="840" />
              <mxPoint x="290" y="840" />
            </Array>
          </mxGeometry>
        </mxCell>
        <mxCell id="osTqrTg-uP3xbEGMU3VC-56" value="" style="edgeStyle=orthogonalEdgeStyle;rounded=0;orthogonalLoop=1;jettySize=auto;html=1;entryX=0;entryY=0.5;entryDx=0;entryDy=0;exitX=1;exitY=0.25;exitDx=0;exitDy=0;" edge="1" parent="1" source="osTqrTg-uP3xbEGMU3VC-6" target="osTqrTg-uP3xbEGMU3VC-57">
          <mxGeometry relative="1" as="geometry">
            <mxPoint x="365" y="100" as="targetPoint" />
            <Array as="points">
              <mxPoint x="320" y="90" />
              <mxPoint x="320" y="83" />
            </Array>
          </mxGeometry>
        </mxCell>
        <mxCell id="osTqrTg-uP3xbEGMU3VC-59" style="edgeStyle=orthogonalEdgeStyle;rounded=0;orthogonalLoop=1;jettySize=auto;html=1;exitX=1;exitY=0.75;exitDx=0;exitDy=0;entryX=0;entryY=0.75;entryDx=0;entryDy=0;" edge="1" parent="1" source="osTqrTg-uP3xbEGMU3VC-6" target="osTqrTg-uP3xbEGMU3VC-58">
          <mxGeometry relative="1" as="geometry" />
        </mxCell>
        <mxCell id="osTqrTg-uP3xbEGMU3VC-61" style="edgeStyle=orthogonalEdgeStyle;rounded=0;orthogonalLoop=1;jettySize=auto;html=1;exitX=1;exitY=0.5;exitDx=0;exitDy=0;entryX=0;entryY=0.5;entryDx=0;entryDy=0;" edge="1" parent="1" source="osTqrTg-uP3xbEGMU3VC-8" target="osTqrTg-uP3xbEGMU3VC-60">
          <mxGeometry relative="1" as="geometry" />
        </mxCell>
        <mxCell id="osTqrTg-uP3xbEGMU3VC-63" style="edgeStyle=orthogonalEdgeStyle;rounded=0;orthogonalLoop=1;jettySize=auto;html=1;exitX=1;exitY=0.25;exitDx=0;exitDy=0;entryX=0;entryY=0.25;entryDx=0;entryDy=0;" edge="1" parent="1" source="osTqrTg-uP3xbEGMU3VC-29" target="osTqrTg-uP3xbEGMU3VC-62">
          <mxGeometry relative="1" as="geometry" />
        </mxCell>
        <mxCell id="osTqrTg-uP3xbEGMU3VC-65" style="edgeStyle=orthogonalEdgeStyle;rounded=0;orthogonalLoop=1;jettySize=auto;html=1;exitX=1;exitY=0.25;exitDx=0;exitDy=0;entryX=0;entryY=0.5;entryDx=0;entryDy=0;" edge="1" parent="1" source="osTqrTg-uP3xbEGMU3VC-21" target="osTqrTg-uP3xbEGMU3VC-64">
          <mxGeometry relative="1" as="geometry">
            <Array as="points">
              <mxPoint x="310" y="590" />
              <mxPoint x="310" y="570" />
            </Array>
          </mxGeometry>
        </mxCell>
        <mxCell id="osTqrTg-uP3xbEGMU3VC-66" value="&lt;div&gt;Tasks&lt;/div&gt;" style="swimlane;whiteSpace=wrap;html=1;" vertex="1" parent="1">
          <mxGeometry x="300" y="520" width="530" height="670" as="geometry" />
        </mxCell>
        <mxCell id="osTqrTg-uP3xbEGMU3VC-64" value="Identify production software." style="rounded=1;whiteSpace=wrap;html=1;" vertex="1" parent="osTqrTg-uP3xbEGMU3VC-66">
          <mxGeometry x="37.5" y="30" width="162.5" height="40" as="geometry" />
        </mxCell>
        <mxCell id="osTqrTg-uP3xbEGMU3VC-34" value="draw or find" style="rounded=1;whiteSpace=wrap;html=1;" vertex="1" parent="osTqrTg-uP3xbEGMU3VC-66">
          <mxGeometry x="80" y="115" width="120" height="30" as="geometry" />
        </mxCell>
        <mxCell id="osTqrTg-uP3xbEGMU3VC-125" style="edgeStyle=orthogonalEdgeStyle;rounded=0;orthogonalLoop=1;jettySize=auto;html=1;exitX=1;exitY=0.25;exitDx=0;exitDy=0;" edge="1" parent="osTqrTg-uP3xbEGMU3VC-66" source="osTqrTg-uP3xbEGMU3VC-36">
          <mxGeometry relative="1" as="geometry">
            <mxPoint x="350" y="170" as="targetPoint" />
          </mxGeometry>
        </mxCell>
        <mxCell id="osTqrTg-uP3xbEGMU3VC-36" value="Select modeling approach for each object" style="rounded=1;whiteSpace=wrap;html=1;" vertex="1" parent="osTqrTg-uP3xbEGMU3VC-66">
          <mxGeometry x="130" y="160" width="150" height="40" as="geometry" />
        </mxCell>
        <mxCell id="osTqrTg-uP3xbEGMU3VC-103" style="edgeStyle=orthogonalEdgeStyle;rounded=0;orthogonalLoop=1;jettySize=auto;html=1;exitX=1;exitY=0.25;exitDx=0;exitDy=0;entryX=0;entryY=0.75;entryDx=0;entryDy=0;" edge="1" parent="osTqrTg-uP3xbEGMU3VC-66" source="osTqrTg-uP3xbEGMU3VC-39" target="osTqrTg-uP3xbEGMU3VC-45">
          <mxGeometry relative="1" as="geometry" />
        </mxCell>
        <mxCell id="osTqrTg-uP3xbEGMU3VC-39" value="UV projection, unwrapping" style="rounded=1;whiteSpace=wrap;html=1;" vertex="1" parent="osTqrTg-uP3xbEGMU3VC-66">
          <mxGeometry x="120" y="210" width="170" height="30" as="geometry" />
        </mxCell>
        <mxCell id="osTqrTg-uP3xbEGMU3VC-41" value="Choose visual style" style="rounded=1;whiteSpace=wrap;html=1;" vertex="1" parent="osTqrTg-uP3xbEGMU3VC-66">
          <mxGeometry x="40" y="250" width="120" height="30" as="geometry" />
        </mxCell>
        <mxCell id="osTqrTg-uP3xbEGMU3VC-49" value="Block animation" style="rounded=1;whiteSpace=wrap;html=1;" vertex="1" parent="osTqrTg-uP3xbEGMU3VC-66">
          <mxGeometry x="50" y="300" width="120" height="40" as="geometry" />
        </mxCell>
        <mxCell id="osTqrTg-uP3xbEGMU3VC-53" value="" style="edgeStyle=orthogonalEdgeStyle;rounded=0;orthogonalLoop=1;jettySize=auto;html=1;exitX=1;exitY=0.75;exitDx=0;exitDy=0;entryX=0;entryY=0.5;entryDx=0;entryDy=0;" edge="1" parent="osTqrTg-uP3xbEGMU3VC-66" source="osTqrTg-uP3xbEGMU3VC-49" target="osTqrTg-uP3xbEGMU3VC-76">
          <mxGeometry relative="1" as="geometry">
            <mxPoint x="218" y="330" as="targetPoint" />
          </mxGeometry>
        </mxCell>
        <mxCell id="osTqrTg-uP3xbEGMU3VC-62" value="Find voice actor and provide script" style="whiteSpace=wrap;html=1;rounded=1;" vertex="1" parent="osTqrTg-uP3xbEGMU3VC-66">
          <mxGeometry x="145" y="360" width="145" height="40" as="geometry" />
        </mxCell>
        <mxCell id="osTqrTg-uP3xbEGMU3VC-47" value="Identify object deformation and control requirements" style="rounded=1;whiteSpace=wrap;html=1;" vertex="1" parent="osTqrTg-uP3xbEGMU3VC-66">
          <mxGeometry x="350" y="260" width="160" height="40" as="geometry" />
        </mxCell>
        <mxCell id="osTqrTg-uP3xbEGMU3VC-45" value="Download, paint, or otherwise create textures" style="rounded=1;whiteSpace=wrap;html=1;" vertex="1" parent="osTqrTg-uP3xbEGMU3VC-66">
          <mxGeometry x="355" y="200" width="150" height="40" as="geometry" />
        </mxCell>
        <mxCell id="osTqrTg-uP3xbEGMU3VC-67" value="Determine workflows and roles (teams)" style="rounded=1;whiteSpace=wrap;html=1;" vertex="1" parent="osTqrTg-uP3xbEGMU3VC-66">
          <mxGeometry x="210" y="50" width="130" height="40" as="geometry" />
        </mxCell>
        <mxCell id="osTqrTg-uP3xbEGMU3VC-70" value="Determine production requirements and constraints" style="rounded=1;whiteSpace=wrap;html=1;" vertex="1" parent="osTqrTg-uP3xbEGMU3VC-66">
          <mxGeometry x="375" y="75" width="145" height="55" as="geometry" />
        </mxCell>
        <mxCell id="osTqrTg-uP3xbEGMU3VC-76" value="Refine performance w/ graph curves" style="rounded=1;whiteSpace=wrap;html=1;" vertex="1" parent="osTqrTg-uP3xbEGMU3VC-66">
          <mxGeometry x="210" y="290" width="120" height="40" as="geometry" />
        </mxCell>
        <mxCell id="osTqrTg-uP3xbEGMU3VC-86" value="Bake animation to each frame for export (games)" style="rounded=1;whiteSpace=wrap;html=1;" vertex="1" parent="osTqrTg-uP3xbEGMU3VC-66">
          <mxGeometry x="350" y="315" width="150" height="40" as="geometry" />
        </mxCell>
        <mxCell id="osTqrTg-uP3xbEGMU3VC-88" value="Write script" style="whiteSpace=wrap;html=1;rounded=1;" vertex="1" parent="osTqrTg-uP3xbEGMU3VC-66">
          <mxGeometry x="30" y="390" width="90" height="30" as="geometry" />
        </mxCell>
        <mxCell id="osTqrTg-uP3xbEGMU3VC-91" value="Sync with animation" style="whiteSpace=wrap;html=1;rounded=1;" vertex="1" parent="osTqrTg-uP3xbEGMU3VC-66">
          <mxGeometry x="380" y="380" width="130" height="30" as="geometry" />
        </mxCell>
        <mxCell id="osTqrTg-uP3xbEGMU3VC-95" value="Bake simulation for rendering or export for game engine" style="rounded=1;whiteSpace=wrap;html=1;" vertex="1" parent="osTqrTg-uP3xbEGMU3VC-66">
          <mxGeometry x="260" y="480" width="170" height="40" as="geometry" />
        </mxCell>
        <mxCell id="osTqrTg-uP3xbEGMU3VC-96" value="Configure cloth, fluids or rigid body collision and deformation settings" style="rounded=1;whiteSpace=wrap;html=1;" vertex="1" parent="osTqrTg-uP3xbEGMU3VC-66">
          <mxGeometry x="20" y="460" width="200" height="40" as="geometry" />
        </mxCell>
        <mxCell id="osTqrTg-uP3xbEGMU3VC-102" style="edgeStyle=orthogonalEdgeStyle;rounded=0;orthogonalLoop=1;jettySize=auto;html=1;exitX=1;exitY=0.5;exitDx=0;exitDy=0;entryX=0;entryY=0.5;entryDx=0;entryDy=0;" edge="1" parent="osTqrTg-uP3xbEGMU3VC-66" source="osTqrTg-uP3xbEGMU3VC-99" target="osTqrTg-uP3xbEGMU3VC-101">
          <mxGeometry relative="1" as="geometry" />
        </mxCell>
        <mxCell id="osTqrTg-uP3xbEGMU3VC-99" value="Use MoCap suit or other tools" style="whiteSpace=wrap;html=1;rounded=1;" vertex="1" parent="osTqrTg-uP3xbEGMU3VC-66">
          <mxGeometry x="130" y="420" width="190" height="30" as="geometry" />
        </mxCell>
        <mxCell id="osTqrTg-uP3xbEGMU3VC-101" value="Clean captured data" style="whiteSpace=wrap;html=1;rounded=1;" vertex="1" parent="osTqrTg-uP3xbEGMU3VC-66">
          <mxGeometry x="375" y="420" width="130" height="30" as="geometry" />
        </mxCell>
        <mxCell id="osTqrTg-uP3xbEGMU3VC-104" value="Do test renders and calculate render times" style="rounded=1;whiteSpace=wrap;html=1;" vertex="1" parent="osTqrTg-uP3xbEGMU3VC-66">
          <mxGeometry x="361.88" y="530" width="156.25" height="40" as="geometry" />
        </mxCell>
        <mxCell id="osTqrTg-uP3xbEGMU3VC-106" value="Ensure high frame rate in game engines" style="rounded=1;whiteSpace=wrap;html=1;" vertex="1" parent="osTqrTg-uP3xbEGMU3VC-66">
          <mxGeometry x="31.879999999999995" y="530" width="156.25" height="40" as="geometry" />
        </mxCell>
        <mxCell id="osTqrTg-uP3xbEGMU3VC-119" style="edgeStyle=orthogonalEdgeStyle;rounded=0;orthogonalLoop=1;jettySize=auto;html=1;exitX=1;exitY=0.75;exitDx=0;exitDy=0;entryX=0;entryY=0.5;entryDx=0;entryDy=0;" edge="1" parent="osTqrTg-uP3xbEGMU3VC-66" source="osTqrTg-uP3xbEGMU3VC-109" target="osTqrTg-uP3xbEGMU3VC-118">
          <mxGeometry relative="1" as="geometry" />
        </mxCell>
        <mxCell id="osTqrTg-uP3xbEGMU3VC-109" value="Configure camera settings" style="rounded=1;whiteSpace=wrap;html=1;" vertex="1" parent="osTqrTg-uP3xbEGMU3VC-66">
          <mxGeometry x="230" y="550" width="110" height="40" as="geometry" />
        </mxCell>
        <mxCell id="osTqrTg-uP3xbEGMU3VC-118" value="Configure high quality settings" style="rounded=1;whiteSpace=wrap;html=1;" vertex="1" parent="osTqrTg-uP3xbEGMU3VC-66">
          <mxGeometry x="385" y="580" width="110" height="40" as="geometry" />
        </mxCell>
        <mxCell id="osTqrTg-uP3xbEGMU3VC-122" value="Block scene for placement, scale, and proportion" style="rounded=1;whiteSpace=wrap;html=1;" vertex="1" parent="osTqrTg-uP3xbEGMU3VC-66">
          <mxGeometry x="31.88" y="590" width="165" height="40" as="geometry" />
        </mxCell>
        <mxCell id="osTqrTg-uP3xbEGMU3VC-123" value="Export/import 3D assets (games)" style="rounded=1;whiteSpace=wrap;html=1;" vertex="1" parent="osTqrTg-uP3xbEGMU3VC-66">
          <mxGeometry x="240" y="610" width="110" height="40" as="geometry" />
        </mxCell>
        <mxCell id="osTqrTg-uP3xbEGMU3VC-126" value="Model and refine objects for good edgeflow" style="rounded=1;whiteSpace=wrap;html=1;" vertex="1" parent="osTqrTg-uP3xbEGMU3VC-66">
          <mxGeometry x="350" y="150" width="140" height="40" as="geometry" />
        </mxCell>
        <mxCell id="osTqrTg-uP3xbEGMU3VC-69" style="edgeStyle=orthogonalEdgeStyle;rounded=0;orthogonalLoop=1;jettySize=auto;html=1;exitX=1;exitY=0.5;exitDx=0;exitDy=0;entryX=0;entryY=0.75;entryDx=0;entryDy=0;" edge="1" parent="1" source="osTqrTg-uP3xbEGMU3VC-21" target="osTqrTg-uP3xbEGMU3VC-67">
          <mxGeometry relative="1" as="geometry" />
        </mxCell>
        <mxCell id="osTqrTg-uP3xbEGMU3VC-71" style="edgeStyle=orthogonalEdgeStyle;rounded=0;orthogonalLoop=1;jettySize=auto;html=1;exitX=1;exitY=0.75;exitDx=0;exitDy=0;entryX=0;entryY=0.5;entryDx=0;entryDy=0;" edge="1" parent="1" source="osTqrTg-uP3xbEGMU3VC-21" target="osTqrTg-uP3xbEGMU3VC-70">
          <mxGeometry relative="1" as="geometry" />
        </mxCell>
        <mxCell id="osTqrTg-uP3xbEGMU3VC-74" style="edgeStyle=orthogonalEdgeStyle;rounded=0;orthogonalLoop=1;jettySize=auto;html=1;exitX=1;exitY=0.5;exitDx=0;exitDy=0;entryX=0;entryY=0.5;entryDx=0;entryDy=0;" edge="1" parent="1" source="osTqrTg-uP3xbEGMU3VC-54" target="osTqrTg-uP3xbEGMU3VC-73">
          <mxGeometry relative="1" as="geometry" />
        </mxCell>
        <mxCell id="osTqrTg-uP3xbEGMU3VC-75" style="edgeStyle=orthogonalEdgeStyle;rounded=0;orthogonalLoop=1;jettySize=auto;html=1;entryX=0;entryY=0.5;entryDx=0;entryDy=0;exitX=1;exitY=0.75;exitDx=0;exitDy=0;" edge="1" parent="1" source="osTqrTg-uP3xbEGMU3VC-17" target="osTqrTg-uP3xbEGMU3VC-47">
          <mxGeometry relative="1" as="geometry">
            <mxPoint x="250" y="810" as="sourcePoint" />
            <Array as="points">
              <mxPoint x="480" y="810" />
              <mxPoint x="480" y="800" />
            </Array>
          </mxGeometry>
        </mxCell>
        <mxCell id="osTqrTg-uP3xbEGMU3VC-77" style="edgeStyle=orthogonalEdgeStyle;rounded=0;orthogonalLoop=1;jettySize=auto;html=1;exitX=1;exitY=0.5;exitDx=0;exitDy=0;entryX=0;entryY=0.5;entryDx=0;entryDy=0;" edge="1" parent="1" source="osTqrTg-uP3xbEGMU3VC-12" target="osTqrTg-uP3xbEGMU3VC-36">
          <mxGeometry relative="1" as="geometry">
            <Array as="points">
              <mxPoint x="350" y="700" />
              <mxPoint x="350" y="700" />
            </Array>
          </mxGeometry>
        </mxCell>
        <mxCell id="osTqrTg-uP3xbEGMU3VC-79" style="edgeStyle=orthogonalEdgeStyle;rounded=0;orthogonalLoop=1;jettySize=auto;html=1;exitX=1;exitY=0.5;exitDx=0;exitDy=0;entryX=0;entryY=0.5;entryDx=0;entryDy=0;" edge="1" parent="1" source="osTqrTg-uP3xbEGMU3VC-11" target="osTqrTg-uP3xbEGMU3VC-78">
          <mxGeometry relative="1" as="geometry">
            <Array as="points">
              <mxPoint x="320" y="200" />
              <mxPoint x="320" y="213" />
            </Array>
          </mxGeometry>
        </mxCell>
        <mxCell id="osTqrTg-uP3xbEGMU3VC-81" style="edgeStyle=orthogonalEdgeStyle;rounded=0;orthogonalLoop=1;jettySize=auto;html=1;exitX=1;exitY=0.5;exitDx=0;exitDy=0;entryX=0;entryY=0.5;entryDx=0;entryDy=0;" edge="1" parent="1" source="osTqrTg-uP3xbEGMU3VC-15" target="osTqrTg-uP3xbEGMU3VC-80">
          <mxGeometry relative="1" as="geometry" />
        </mxCell>
        <mxCell id="osTqrTg-uP3xbEGMU3VC-83" style="edgeStyle=orthogonalEdgeStyle;rounded=0;orthogonalLoop=1;jettySize=auto;html=1;exitX=1;exitY=0.5;exitDx=0;exitDy=0;entryX=0;entryY=0.5;entryDx=0;entryDy=0;" edge="1" parent="1" source="osTqrTg-uP3xbEGMU3VC-27" target="osTqrTg-uP3xbEGMU3VC-82">
          <mxGeometry relative="1" as="geometry">
            <Array as="points">
              <mxPoint x="310" y="300" />
              <mxPoint x="310" y="313" />
            </Array>
          </mxGeometry>
        </mxCell>
        <mxCell id="osTqrTg-uP3xbEGMU3VC-85" style="edgeStyle=orthogonalEdgeStyle;rounded=0;orthogonalLoop=1;jettySize=auto;html=1;exitX=1;exitY=0.5;exitDx=0;exitDy=0;" edge="1" parent="1" source="osTqrTg-uP3xbEGMU3VC-30" target="osTqrTg-uP3xbEGMU3VC-84">
          <mxGeometry relative="1" as="geometry" />
        </mxCell>
        <mxCell id="osTqrTg-uP3xbEGMU3VC-87" style="edgeStyle=orthogonalEdgeStyle;rounded=0;orthogonalLoop=1;jettySize=auto;html=1;exitX=1;exitY=0.75;exitDx=0;exitDy=0;entryX=0;entryY=0.75;entryDx=0;entryDy=0;" edge="1" parent="1" source="osTqrTg-uP3xbEGMU3VC-16" target="osTqrTg-uP3xbEGMU3VC-86">
          <mxGeometry relative="1" as="geometry">
            <mxPoint x="620" y="890" as="targetPoint" />
            <Array as="points">
              <mxPoint x="320" y="860" />
              <mxPoint x="320" y="870" />
              <mxPoint x="510" y="870" />
              <mxPoint x="510" y="865" />
            </Array>
          </mxGeometry>
        </mxCell>
        <mxCell id="osTqrTg-uP3xbEGMU3VC-90" style="edgeStyle=orthogonalEdgeStyle;rounded=0;orthogonalLoop=1;jettySize=auto;html=1;exitX=1;exitY=0.75;exitDx=0;exitDy=0;entryX=0;entryY=0.25;entryDx=0;entryDy=0;" edge="1" parent="1" source="osTqrTg-uP3xbEGMU3VC-29" target="osTqrTg-uP3xbEGMU3VC-88">
          <mxGeometry relative="1" as="geometry">
            <Array as="points">
              <mxPoint x="310" y="910" />
              <mxPoint x="310" y="918" />
            </Array>
          </mxGeometry>
        </mxCell>
        <mxCell id="osTqrTg-uP3xbEGMU3VC-93" style="edgeStyle=orthogonalEdgeStyle;rounded=0;orthogonalLoop=1;jettySize=auto;html=1;exitX=1;exitY=0.5;exitDx=0;exitDy=0;entryX=0;entryY=0.5;entryDx=0;entryDy=0;" edge="1" parent="1" source="osTqrTg-uP3xbEGMU3VC-29" target="osTqrTg-uP3xbEGMU3VC-91">
          <mxGeometry relative="1" as="geometry">
            <Array as="points">
              <mxPoint x="430" y="900" />
              <mxPoint x="430" y="930" />
              <mxPoint x="640" y="930" />
              <mxPoint x="640" y="915" />
            </Array>
          </mxGeometry>
        </mxCell>
        <mxCell id="osTqrTg-uP3xbEGMU3VC-94" value="Tasks" style="swimlane;whiteSpace=wrap;html=1;" vertex="1" parent="1">
          <mxGeometry x="300" y="20" width="530" height="460" as="geometry" />
        </mxCell>
        <mxCell id="osTqrTg-uP3xbEGMU3VC-57" value="Primary research: Take photographs/video in the field as reference. (IE - At the zoo)" style="rounded=1;whiteSpace=wrap;html=1;" vertex="1" parent="osTqrTg-uP3xbEGMU3VC-94">
          <mxGeometry x="45" y="40" width="240" height="45" as="geometry" />
        </mxCell>
        <mxCell id="osTqrTg-uP3xbEGMU3VC-58" value="Secondary research: Library or Internet searches" style="rounded=1;whiteSpace=wrap;html=1;" vertex="1" parent="osTqrTg-uP3xbEGMU3VC-94">
          <mxGeometry x="325" y="65" width="165" height="45" as="geometry" />
        </mxCell>
        <mxCell id="osTqrTg-uP3xbEGMU3VC-60" value="Draw chronological storyboards, with notes about each shot." style="rounded=1;whiteSpace=wrap;html=1;" vertex="1" parent="osTqrTg-uP3xbEGMU3VC-94">
          <mxGeometry x="110" y="120" width="190" height="45" as="geometry" />
        </mxCell>
        <mxCell id="osTqrTg-uP3xbEGMU3VC-78" value="Use drawing and painting to make design decisions" style="rounded=1;whiteSpace=wrap;html=1;" vertex="1" parent="osTqrTg-uP3xbEGMU3VC-94">
          <mxGeometry x="40" y="170" width="165" height="45" as="geometry" />
        </mxCell>
        <mxCell id="osTqrTg-uP3xbEGMU3VC-80" value="Block out animation for timing and sound" style="rounded=1;whiteSpace=wrap;html=1;" vertex="1" parent="osTqrTg-uP3xbEGMU3VC-94">
          <mxGeometry x="250" y="207.5" width="145" height="45" as="geometry" />
        </mxCell>
        <mxCell id="osTqrTg-uP3xbEGMU3VC-82" value="Explore aesthetic and style with render experiements" style="rounded=1;whiteSpace=wrap;html=1;" vertex="1" parent="osTqrTg-uP3xbEGMU3VC-94">
          <mxGeometry x="40" y="270" width="165" height="45" as="geometry" />
        </mxCell>
        <mxCell id="osTqrTg-uP3xbEGMU3VC-73" value="Find or make video reference animations" style="whiteSpace=wrap;html=1;rounded=1;" vertex="1" parent="osTqrTg-uP3xbEGMU3VC-94">
          <mxGeometry x="45" y="360" width="140" height="40" as="geometry" />
        </mxCell>
        <mxCell id="osTqrTg-uP3xbEGMU3VC-84" value="Write and revise scripts using script writing tools" style="whiteSpace=wrap;html=1;rounded=1;" vertex="1" parent="osTqrTg-uP3xbEGMU3VC-94">
          <mxGeometry x="205" y="320" width="190" height="40" as="geometry" />
        </mxCell>
        <mxCell id="osTqrTg-uP3xbEGMU3VC-97" style="edgeStyle=orthogonalEdgeStyle;rounded=0;orthogonalLoop=1;jettySize=auto;html=1;exitX=1;exitY=0.25;exitDx=0;exitDy=0;entryX=0;entryY=0.25;entryDx=0;entryDy=0;" edge="1" parent="1" source="osTqrTg-uP3xbEGMU3VC-18" target="osTqrTg-uP3xbEGMU3VC-96">
          <mxGeometry relative="1" as="geometry" />
        </mxCell>
        <mxCell id="osTqrTg-uP3xbEGMU3VC-98" style="edgeStyle=orthogonalEdgeStyle;rounded=0;orthogonalLoop=1;jettySize=auto;html=1;exitX=1;exitY=0.5;exitDx=0;exitDy=0;entryX=0;entryY=0.75;entryDx=0;entryDy=0;" edge="1" parent="1" source="osTqrTg-uP3xbEGMU3VC-18" target="osTqrTg-uP3xbEGMU3VC-95">
          <mxGeometry relative="1" as="geometry">
            <Array as="points">
              <mxPoint x="310" y="1000" />
              <mxPoint x="310" y="1030" />
            </Array>
          </mxGeometry>
        </mxCell>
        <mxCell id="osTqrTg-uP3xbEGMU3VC-100" style="edgeStyle=orthogonalEdgeStyle;rounded=0;orthogonalLoop=1;jettySize=auto;html=1;exitX=1;exitY=0.5;exitDx=0;exitDy=0;entryX=0;entryY=0.75;entryDx=0;entryDy=0;" edge="1" parent="1" source="osTqrTg-uP3xbEGMU3VC-28" target="osTqrTg-uP3xbEGMU3VC-99">
          <mxGeometry relative="1" as="geometry" />
        </mxCell>
        <mxCell id="osTqrTg-uP3xbEGMU3VC-105" style="edgeStyle=orthogonalEdgeStyle;rounded=0;orthogonalLoop=1;jettySize=auto;html=1;exitX=1;exitY=0.25;exitDx=0;exitDy=0;entryX=0;entryY=0.25;entryDx=0;entryDy=0;" edge="1" parent="1" source="osTqrTg-uP3xbEGMU3VC-14" target="osTqrTg-uP3xbEGMU3VC-104">
          <mxGeometry relative="1" as="geometry">
            <Array as="points">
              <mxPoint x="540" y="1040" />
              <mxPoint x="540" y="1060" />
            </Array>
          </mxGeometry>
        </mxCell>
        <mxCell id="osTqrTg-uP3xbEGMU3VC-108" style="edgeStyle=orthogonalEdgeStyle;rounded=0;orthogonalLoop=1;jettySize=auto;html=1;exitX=1;exitY=0.5;exitDx=0;exitDy=0;entryX=0;entryY=0.25;entryDx=0;entryDy=0;" edge="1" parent="1" source="osTqrTg-uP3xbEGMU3VC-14" target="osTqrTg-uP3xbEGMU3VC-106">
          <mxGeometry relative="1" as="geometry">
            <Array as="points">
              <mxPoint x="320" y="1050" />
              <mxPoint x="320" y="1060" />
            </Array>
          </mxGeometry>
        </mxCell>
        <mxCell id="osTqrTg-uP3xbEGMU3VC-110" style="edgeStyle=orthogonalEdgeStyle;rounded=0;orthogonalLoop=1;jettySize=auto;html=1;exitX=1;exitY=0.75;exitDx=0;exitDy=0;entryX=0;entryY=0.75;entryDx=0;entryDy=0;" edge="1" parent="1" source="osTqrTg-uP3xbEGMU3VC-14" target="osTqrTg-uP3xbEGMU3VC-109">
          <mxGeometry relative="1" as="geometry">
            <Array as="points">
              <mxPoint x="310" y="1060" />
              <mxPoint x="310" y="1100" />
            </Array>
          </mxGeometry>
        </mxCell>
        <mxCell id="osTqrTg-uP3xbEGMU3VC-112" value="Theory" style="rounded=0;whiteSpace=wrap;html=1;" vertex="1" parent="1">
          <mxGeometry x="20" y="1440" width="250" height="40" as="geometry" />
        </mxCell>
        <mxCell id="osTqrTg-uP3xbEGMU3VC-113" value="" style="swimlane;startSize=0;" vertex="1" parent="1">
          <mxGeometry x="20" y="1480" width="250" height="200" as="geometry" />
        </mxCell>
        <mxCell id="osTqrTg-uP3xbEGMU3VC-111" value="&lt;div&gt;Research&lt;br&gt;&lt;/div&gt;" style="rounded=1;whiteSpace=wrap;html=1;fillColor=#2582DE;strokeColor=none;fontColor=#FFFFFF;" vertex="1" parent="osTqrTg-uP3xbEGMU3VC-113">
          <mxGeometry x="25" y="20" width="200" height="40" as="geometry" />
        </mxCell>
        <mxCell id="osTqrTg-uP3xbEGMU3VC-114" value="&lt;div&gt;Concept development&lt;br&gt;&lt;/div&gt;" style="rounded=1;whiteSpace=wrap;html=1;fillColor=#2582DE;strokeColor=none;fontColor=#FFFFFF;" vertex="1" parent="osTqrTg-uP3xbEGMU3VC-113">
          <mxGeometry x="25" y="70" width="200" height="40" as="geometry" />
        </mxCell>
        <mxCell id="osTqrTg-uP3xbEGMU3VC-115" value="Critique" style="rounded=1;whiteSpace=wrap;html=1;fillColor=#2582DE;strokeColor=none;fontColor=#FFFFFF;" vertex="1" parent="osTqrTg-uP3xbEGMU3VC-113">
          <mxGeometry x="25" y="120" width="200" height="40" as="geometry" />
        </mxCell>
        <mxCell id="osTqrTg-uP3xbEGMU3VC-117" style="edgeStyle=orthogonalEdgeStyle;rounded=0;orthogonalLoop=1;jettySize=auto;html=1;exitX=1;exitY=0.5;exitDx=0;exitDy=0;" edge="1" parent="1" source="osTqrTg-uP3xbEGMU3VC-32" target="osTqrTg-uP3xbEGMU3VC-122">
          <mxGeometry relative="1" as="geometry">
            <mxPoint x="340" y="1150" as="targetPoint" />
            <Array as="points">
              <mxPoint x="310" y="1150" />
              <mxPoint x="310" y="1130" />
            </Array>
          </mxGeometry>
        </mxCell>
        <mxCell id="osTqrTg-uP3xbEGMU3VC-124" style="edgeStyle=orthogonalEdgeStyle;rounded=0;orthogonalLoop=1;jettySize=auto;html=1;exitX=1;exitY=0.75;exitDx=0;exitDy=0;entryX=0;entryY=0.75;entryDx=0;entryDy=0;" edge="1" parent="1" source="osTqrTg-uP3xbEGMU3VC-32" target="osTqrTg-uP3xbEGMU3VC-123">
          <mxGeometry relative="1" as="geometry" />
        </mxCell>
        <mxCell id="osTqrTg-uP3xbEGMU3VC-129" style="edgeStyle=orthogonalEdgeStyle;rounded=0;orthogonalLoop=1;jettySize=auto;html=1;exitX=1;exitY=0.5;exitDx=0;exitDy=0;" edge="1" parent="1" source="osTqrTg-uP3xbEGMU3VC-114" target="osTqrTg-uP3xbEGMU3VC-128">
          <mxGeometry relative="1" as="geometry" />
        </mxCell>
        <mxCell id="osTqrTg-uP3xbEGMU3VC-130" style="edgeStyle=orthogonalEdgeStyle;rounded=0;orthogonalLoop=1;jettySize=auto;html=1;exitX=1;exitY=0.5;exitDx=0;exitDy=0;entryX=0;entryY=0.5;entryDx=0;entryDy=0;" edge="1" parent="1" source="osTqrTg-uP3xbEGMU3VC-111" target="osTqrTg-uP3xbEGMU3VC-127">
          <mxGeometry relative="1" as="geometry">
            <Array as="points">
              <mxPoint x="310" y="1520" />
              <mxPoint x="310" y="1500" />
            </Array>
          </mxGeometry>
        </mxCell>
        <mxCell id="osTqrTg-uP3xbEGMU3VC-132" style="edgeStyle=orthogonalEdgeStyle;rounded=0;orthogonalLoop=1;jettySize=auto;html=1;exitX=1;exitY=0.5;exitDx=0;exitDy=0;" edge="1" parent="1" source="osTqrTg-uP3xbEGMU3VC-115" target="osTqrTg-uP3xbEGMU3VC-131">
          <mxGeometry relative="1" as="geometry" />
        </mxCell>
        <mxCell id="osTqrTg-uP3xbEGMU3VC-134" style="edgeStyle=orthogonalEdgeStyle;rounded=0;orthogonalLoop=1;jettySize=auto;html=1;exitX=1;exitY=0.75;exitDx=0;exitDy=0;entryX=0;entryY=0.75;entryDx=0;entryDy=0;" edge="1" parent="1" source="osTqrTg-uP3xbEGMU3VC-115" target="osTqrTg-uP3xbEGMU3VC-133">
          <mxGeometry relative="1" as="geometry">
            <Array as="points">
              <mxPoint x="310" y="1630" />
              <mxPoint x="310" y="1650" />
            </Array>
          </mxGeometry>
        </mxCell>
        <mxCell id="osTqrTg-uP3xbEGMU3VC-136" style="edgeStyle=orthogonalEdgeStyle;rounded=0;orthogonalLoop=1;jettySize=auto;html=1;exitX=1;exitY=0.25;exitDx=0;exitDy=0;entryX=0;entryY=0.5;entryDx=0;entryDy=0;" edge="1" parent="1" source="osTqrTg-uP3xbEGMU3VC-114" target="osTqrTg-uP3xbEGMU3VC-135">
          <mxGeometry relative="1" as="geometry">
            <Array as="points">
              <mxPoint x="320" y="1560" />
              <mxPoint x="320" y="1530" />
              <mxPoint x="580" y="1530" />
              <mxPoint x="580" y="1570" />
            </Array>
          </mxGeometry>
        </mxCell>
        <mxCell id="osTqrTg-uP3xbEGMU3VC-138" style="edgeStyle=orthogonalEdgeStyle;rounded=0;orthogonalLoop=1;jettySize=auto;html=1;exitX=1;exitY=0.25;exitDx=0;exitDy=0;entryX=0;entryY=0.5;entryDx=0;entryDy=0;" edge="1" parent="1" source="osTqrTg-uP3xbEGMU3VC-19" target="osTqrTg-uP3xbEGMU3VC-137">
          <mxGeometry relative="1" as="geometry" />
        </mxCell>
        <mxCell id="osTqrTg-uP3xbEGMU3VC-140" style="edgeStyle=orthogonalEdgeStyle;rounded=0;orthogonalLoop=1;jettySize=auto;html=1;exitX=1;exitY=0.5;exitDx=0;exitDy=0;entryX=0;entryY=0.75;entryDx=0;entryDy=0;" edge="1" parent="1" source="osTqrTg-uP3xbEGMU3VC-19" target="osTqrTg-uP3xbEGMU3VC-139">
          <mxGeometry relative="1" as="geometry">
            <Array as="points">
              <mxPoint x="320" y="1290" />
              <mxPoint x="320" y="1310" />
              <mxPoint x="560" y="1310" />
              <mxPoint x="560" y="1300" />
            </Array>
          </mxGeometry>
        </mxCell>
        <mxCell id="osTqrTg-uP3xbEGMU3VC-142" style="edgeStyle=orthogonalEdgeStyle;rounded=0;orthogonalLoop=1;jettySize=auto;html=1;exitX=1;exitY=0.75;exitDx=0;exitDy=0;entryX=0;entryY=0.25;entryDx=0;entryDy=0;" edge="1" parent="1" source="osTqrTg-uP3xbEGMU3VC-19" target="osTqrTg-uP3xbEGMU3VC-141">
          <mxGeometry relative="1" as="geometry">
            <Array as="points">
              <mxPoint x="310" y="1300" />
              <mxPoint x="310" y="1330" />
            </Array>
          </mxGeometry>
        </mxCell>
        <mxCell id="osTqrTg-uP3xbEGMU3VC-145" style="edgeStyle=orthogonalEdgeStyle;rounded=0;orthogonalLoop=1;jettySize=auto;html=1;exitX=1;exitY=0.75;exitDx=0;exitDy=0;entryX=0;entryY=0.25;entryDx=0;entryDy=0;" edge="1" parent="1" source="osTqrTg-uP3xbEGMU3VC-20" target="osTqrTg-uP3xbEGMU3VC-144">
          <mxGeometry relative="1" as="geometry">
            <Array as="points">
              <mxPoint x="280" y="1350" />
              <mxPoint x="280" y="1385" />
            </Array>
          </mxGeometry>
        </mxCell>
        <mxCell id="osTqrTg-uP3xbEGMU3VC-146" style="edgeStyle=orthogonalEdgeStyle;rounded=0;orthogonalLoop=1;jettySize=auto;html=1;exitX=1;exitY=0.25;exitDx=0;exitDy=0;" edge="1" parent="1" source="osTqrTg-uP3xbEGMU3VC-20" target="osTqrTg-uP3xbEGMU3VC-143">
          <mxGeometry relative="1" as="geometry">
            <Array as="points">
              <mxPoint x="290" y="1330" />
              <mxPoint x="290" y="1350" />
            </Array>
          </mxGeometry>
        </mxCell>
        <mxCell id="osTqrTg-uP3xbEGMU3VC-147" value="Tasks" style="swimlane;whiteSpace=wrap;html=1;" vertex="1" parent="1">
          <mxGeometry x="300" y="1210" width="530" height="210" as="geometry" />
        </mxCell>
        <mxCell id="osTqrTg-uP3xbEGMU3VC-137" value="Combine render passes to produce complete images or video sequences" style="rounded=1;whiteSpace=wrap;html=1;" vertex="1" parent="osTqrTg-uP3xbEGMU3VC-147">
          <mxGeometry x="31.879999999999995" y="50" width="212.5" height="40" as="geometry" />
        </mxCell>
        <mxCell id="osTqrTg-uP3xbEGMU3VC-139" value="Adjust the color, contrast, and image quality" style="rounded=1;whiteSpace=wrap;html=1;" vertex="1" parent="osTqrTg-uP3xbEGMU3VC-147">
          <mxGeometry x="285" y="60" width="150" height="40" as="geometry" />
        </mxCell>
        <mxCell id="osTqrTg-uP3xbEGMU3VC-141" value="Combine real-world footage with renders" style="rounded=1;whiteSpace=wrap;html=1;" vertex="1" parent="osTqrTg-uP3xbEGMU3VC-147">
          <mxGeometry x="330" y="110" width="160" height="40" as="geometry" />
        </mxCell>
        <mxCell id="osTqrTg-uP3xbEGMU3VC-143" value="Export in optimized formats for streaming" style="rounded=1;whiteSpace=wrap;html=1;" vertex="1" parent="osTqrTg-uP3xbEGMU3VC-147">
          <mxGeometry x="60" y="130" width="250" height="20" as="geometry" />
        </mxCell>
        <mxCell id="osTqrTg-uP3xbEGMU3VC-144" value="Export lossless master copy for future use" style="rounded=1;whiteSpace=wrap;html=1;" vertex="1" parent="osTqrTg-uP3xbEGMU3VC-147">
          <mxGeometry x="45" y="170" width="240" height="20" as="geometry" />
        </mxCell>
        <mxCell id="osTqrTg-uP3xbEGMU3VC-148" value="Tasks" style="swimlane;whiteSpace=wrap;html=1;" vertex="1" parent="1">
          <mxGeometry x="300" y="1440" width="530" height="240" as="geometry" />
        </mxCell>
        <mxCell id="osTqrTg-uP3xbEGMU3VC-127" value="Locate related themes, social issues, theoretical territory, and history, to contextualize work." style="rounded=1;whiteSpace=wrap;html=1;" vertex="1" parent="osTqrTg-uP3xbEGMU3VC-148">
          <mxGeometry x="90" y="40" width="280" height="40" as="geometry" />
        </mxCell>
        <mxCell id="osTqrTg-uP3xbEGMU3VC-135" value="Make design decisions that support concept goals" style="rounded=1;whiteSpace=wrap;html=1;" vertex="1" parent="osTqrTg-uP3xbEGMU3VC-148">
          <mxGeometry x="340" y="110" width="165" height="40" as="geometry" />
        </mxCell>
        <mxCell id="osTqrTg-uP3xbEGMU3VC-128" value="Articulate and communicate linked ideas, questions, or explorations" style="rounded=1;whiteSpace=wrap;html=1;" vertex="1" parent="osTqrTg-uP3xbEGMU3VC-148">
          <mxGeometry x="50" y="110" width="210" height="40" as="geometry" />
        </mxCell>
        <mxCell id="osTqrTg-uP3xbEGMU3VC-131" value="Analyze work to understand and compare intention and outcomes" style="rounded=1;whiteSpace=wrap;html=1;" vertex="1" parent="osTqrTg-uP3xbEGMU3VC-148">
          <mxGeometry x="30" y="160" width="210" height="40" as="geometry" />
        </mxCell>
        <mxCell id="osTqrTg-uP3xbEGMU3VC-133" value="Use language and vocabulary related to creative practice in art and design" style="rounded=1;whiteSpace=wrap;html=1;" vertex="1" parent="osTqrTg-uP3xbEGMU3VC-148">
          <mxGeometry x="260" y="180" width="210" height="40" as="geometry" />
        </mxCell>
      </root>
    </mxGraphModel>
  </diagram>
</mxfile>
